<svg id="Livello_1" data-name="Livello 1" xmlns="http://www.w3.org/2000/svg" viewBox="0 0 188.93 45.42"><defs><style>.cls-1,.cls-3{fill:#fff;}.cls-1{stroke:#1d1d1b;stroke-miterlimit:10;}.cls-2{fill:#1d1d1b;}.cls-4{fill:#f4981c;}</style></defs><title>amazoff-logo</title><rect class="cls-1" x="107.85" y="0.5" width="80.58" height="30" rx="15"/><path class="cls-2" d="M162.47,39a5.91,5.91,0,0,1-2.28-2.37,7.65,7.65,0,0,1,0-6.93,5.91,5.91,0,0,1,2.28-2.37,7.25,7.25,0,0,1,6.85,0,5.87,5.87,0,0,1,2.28,2.38,7.45,7.45,0,0,1,0,6.91A5.87,5.87,0,0,1,169.32,39a7.25,7.25,0,0,1-6.85,0Zm6-1.4a4.34,4.34,0,0,0,1.68-1.82,6.16,6.16,0,0,0,0-5.22,4.43,4.43,0,0,0-1.68-1.83,5.36,5.36,0,0,0-5.19,0,4.47,4.47,0,0,0-1.67,1.83,6.16,6.16,0,0,0,0,5.22,4.38,4.38,0,0,0,1.67,1.82,5.29,5.29,0,0,0,5.19,0Z" transform="translate(-19.11 -17.89)"/><path class="cls-2" d="M175.52,39.53a.81.81,0,0,1-.24-.59V27.53a.85.85,0,0,1,.24-.61.79.79,0,0,1,.6-.25h7.25a.79.79,0,0,1,.8.8.73.73,0,0,1-.23.56.77.77,0,0,1-.57.22H177v4.12h5.74a.8.8,0,0,1,.8.81.77.77,0,0,1-.23.56.85.85,0,0,1-.57.22H177v5a.79.79,0,0,1-.26.59.8.8,0,0,1-.6.25A.79.79,0,0,1,175.52,39.53Z" transform="translate(-19.11 -17.89)"/><path class="cls-2" d="M186.86,39.53a.81.81,0,0,1-.24-.59V27.53a.85.85,0,0,1,.24-.61.79.79,0,0,1,.6-.25h7.25a.79.79,0,0,1,.8.8.77.77,0,0,1-.23.56.8.8,0,0,1-.57.22h-6.4v4.12h5.75a.8.8,0,0,1,.8.81.77.77,0,0,1-.23.56.85.85,0,0,1-.57.22h-5.75v5a.78.78,0,0,1-.25.59.82.82,0,0,1-.6.25A.79.79,0,0,1,186.86,39.53Z" transform="translate(-19.11 -17.89)"/><circle class="cls-2" cx="123.01" cy="15.5" r="13.29"/><path class="cls-3" d="M22.46,44.19A5.74,5.74,0,0,1,20,42a5.92,5.92,0,0,1-.91-3.27,5.74,5.74,0,0,1,2.41-4.85q2.4-1.81,7.05-1.81h5v-.33a5,5,0,0,0-1.34-3.91A6.16,6.16,0,0,0,28,26.67a14.4,14.4,0,0,0-2.78.24,26,26,0,0,0-2.69.74,2.15,2.15,0,0,1-.54.09A1.44,1.44,0,0,1,21,27.28a1.51,1.51,0,0,1-.45-1.11,1.59,1.59,0,0,1,1.07-1.56,18,18,0,0,1,7.11-1.48,9.23,9.23,0,0,1,4.79,1.15,7.16,7.16,0,0,1,2.88,3,8.66,8.66,0,0,1,.93,4V42.87a1.78,1.78,0,0,1-.56,1.32,1.87,1.87,0,0,1-1.33.53,1.83,1.83,0,0,1-1.32-.53,1.79,1.79,0,0,1-.53-1.32V41.8a10.32,10.32,0,0,1-7.74,3.13A7.71,7.71,0,0,1,22.46,44.19Zm8.25-3.44a9.78,9.78,0,0,0,2.84-2.2V35.1H29.06q-6.21,0-6.21,3.25a3,3,0,0,0,1,2.38,4.94,4.94,0,0,0,3.35.91A7.46,7.46,0,0,0,30.71,40.75Z" transform="translate(-19.11 -17.89)"/><path class="cls-3" d="M44.12,44.19a1.8,1.8,0,0,1-.54-1.32V25.23a1.86,1.86,0,0,1,.54-1.34,1.73,1.73,0,0,1,1.31-.55,1.88,1.88,0,0,1,1.89,1.89v1.68A10.38,10.38,0,0,1,50.1,24.2a7.57,7.57,0,0,1,4.22-1.07,6.38,6.38,0,0,1,3.94,1.23,7,7,0,0,1,2.35,3,8.28,8.28,0,0,1,7.57-4.24A6.23,6.23,0,0,1,72,24.28a6.87,6.87,0,0,1,2.28,3A9.81,9.81,0,0,1,75,31V42.87a1.77,1.77,0,0,1-.55,1.32,1.89,1.89,0,0,1-1.34.53,1.83,1.83,0,0,1-1.85-1.85V31.77a6.58,6.58,0,0,0-.94-3.93,3.83,3.83,0,0,0-3.25-1.25,5.42,5.42,0,0,0-3.48,1.09,10.65,10.65,0,0,0-2.45,2.85V42.87a1.77,1.77,0,0,1-.55,1.32,1.89,1.89,0,0,1-1.34.53,1.83,1.83,0,0,1-1.85-1.85V31.77a6.58,6.58,0,0,0-.94-3.93,3.83,3.83,0,0,0-3.25-1.25,5.42,5.42,0,0,0-3.48,1.09,10.65,10.65,0,0,0-2.45,2.85V42.87a1.77,1.77,0,0,1-.55,1.32,1.89,1.89,0,0,1-1.34.53A1.79,1.79,0,0,1,44.12,44.19Z" transform="translate(-19.11 -17.89)"/><path class="cls-3" d="M83.33,44.19A5.83,5.83,0,0,1,80.88,42a6,6,0,0,1-.9-3.27,5.74,5.74,0,0,1,2.41-4.85q2.4-1.81,7-1.81h5v-.33a5,5,0,0,0-1.33-3.91,6.17,6.17,0,0,0-4.18-1.19,14.36,14.36,0,0,0-2.77.24,26.84,26.84,0,0,0-2.7.74,2.08,2.08,0,0,1-.53.09,1.44,1.44,0,0,1-1.07-.46,1.51,1.51,0,0,1-.45-1.11,1.57,1.57,0,0,1,1.07-1.56,18,18,0,0,1,7.11-1.48,9.26,9.26,0,0,1,4.79,1.15,7.16,7.16,0,0,1,2.88,3,8.66,8.66,0,0,1,.93,4V42.87a1.78,1.78,0,0,1-.56,1.32,1.87,1.87,0,0,1-1.33.53,1.83,1.83,0,0,1-1.86-1.85V41.8a10.29,10.29,0,0,1-7.73,3.13A7.71,7.71,0,0,1,83.33,44.19Zm8.25-3.44a9.6,9.6,0,0,0,2.83-2.2V35.1H89.93q-6.21,0-6.21,3.25a3,3,0,0,0,1,2.38,4.94,4.94,0,0,0,3.35.91A7.46,7.46,0,0,0,91.58,40.75Z" transform="translate(-19.11 -17.89)"/><path class="cls-3" d="M103.59,43.94a1.89,1.89,0,0,1-.74-1.6,2.47,2.47,0,0,1,.65-1.69L115.35,27H104.94a1.67,1.67,0,0,1-1.23-.5,1.65,1.65,0,0,1-.49-1.23,1.73,1.73,0,0,1,.49-1.25,1.62,1.62,0,0,1,1.23-.52h12.47a2.32,2.32,0,0,1,1.72.66,2.28,2.28,0,0,1,.66,1.69,2.46,2.46,0,0,1-.58,1.64L107.7,41h10.57A1.78,1.78,0,0,1,120,42.79a1.6,1.6,0,0,1-.52,1.23,1.74,1.74,0,0,1-1.25.5H105.44A2.88,2.88,0,0,1,103.59,43.94Z" transform="translate(-19.11 -17.89)"/><path class="cls-4" d="M33.86,48.92A110,110,0,0,0,50.3,55.63a83.8,83.8,0,0,0,17,3.48,69.53,69.53,0,0,0,8.66.24,69.73,69.73,0,0,0,8.63-.89,81.46,81.46,0,0,0,16.93-5.07,46.21,46.21,0,0,1-16.24,8.12,49.08,49.08,0,0,1-9.09,1.63,54.94,54.94,0,0,1-9.25,0,59,59,0,0,1-17.77-4.55A53.63,53.63,0,0,1,33.86,48.92Z" transform="translate(-19.11 -17.89)"/><path class="cls-4" d="M91.7,50.29s12.66-2.39,14.2-.85c1.71,1.7-2,12.34-2,12.34s1.93-9,.26-10.64S91.7,50.29,91.7,50.29Z" transform="translate(-19.11 -17.89)"/></svg>