<?xml version="1.0" encoding="utf-8"?>
<!-- Generator: Adobe Illustrator 24.0.0, SVG Export Plug-In . SVG Version: 6.00 Build 0)  -->
<svg version="1.1" xmlns="http://www.w3.org/2000/svg" xmlns:xlink="http://www.w3.org/1999/xlink" x="0px" y="0px"
	 viewBox="0 0 511 511" style="enable-background:new 0 0 511 511;" xml:space="preserve">
<style type="text/css">
	.st0{fill:#D8D1D7;}
	.st1{fill:#CAC0C9;}
	.st2{fill:#E6E2E6;}
	.st3{fill:#433F43;}
	.st4{fill:#FEDB41;}
	.st5{fill:#FFCC33;}
	.st6{fill:#FEA832;}
	.st7{fill:#FE9923;}
</style>
<g id="Livello_1">
	<path class="st0" d="M176.5,122.2L176.5,122.2c10-9.4,23.6-19.3,39.2-23.1c-12.5-8.9-30.2-16.7-52.3-13.8
		c-26.8,3.6-44.8,24.2-55.3,40.7C138,114.5,162.9,118.3,176.5,122.2z"/>
	<path class="st1" d="M194.7,88.3c-15.9,7-29.2,19-39.1,30.3c8.5,0.6,15.6,2.1,21,3.7v0c10-9.4,23.6-19.3,39.2-23.1
		C209.8,94.9,202.8,91,194.7,88.3z"/>
	<path class="st2" d="M245.7,100.4c-27.8-9.6-53.1,6.8-69.2,21.9v0c-16.4-4.8-49-9.2-87,12.8c-53.2,30.7-71.7,90-45.1,248.6
		c2.1,12.6,14.3,21.1,26.8,18.4c0.2,0,0.4-0.1,0.6-0.1c11.2-2.6,18.6-13.3,17.2-24.7l-7.6-63.1c0,0,47.7,28.4,104.7-11.6
		c47.2,29.9,101.4-15.3,110.6-70.2C307.5,168.9,292.9,116.7,245.7,100.4z"/>
	<path class="st0" d="M472,235.3c-14-54.1-37.6-78.7-73.1-82.2c-2.5-0.2-102-0.4-104.6-0.4c6.9,22.3,7.5,49.7,2.5,79.5
		c-9.2,54.9-63.4,100.1-110.6,70.2c-1.4,0.9-2.7,1.9-4.1,2.8c-18.5,12-35.9,17-50.8,18.3c4.6,15.3,12.1,62.1,20.8,85.1
		c3.8,10.2,13.6,16.9,24.5,16.9h8.9c12.1,0,22.6-8.2,25.4-20l5.7-31.3h166.7l5.7,31.3c2.9,11.7,13.4,20,25.4,20h9.9
		c10.3,0,19.6-6,23.8-15.3C461.5,380.8,486.5,291.6,472,235.3z"/>
	<path class="st1" d="M297.4,152.7l0.7,2.7l93,0c0.9,0,1.8,0.1,2.6,0.3c28,8,47.3,32.7,59.5,79.6c14.6,56.3-10.4,145.4-23.7,174.8
		c-3.6,8-10.9,13.5-19.4,15c1.5,0.3,3,0.4,4.5,0.4h9.9c10.3,0,19.6-6,23.8-15.3c13.3-29.3,38.3-118.5,23.7-174.8
		c-15-57.9-41-82-80.7-82.6H297.4z"/>
	<path class="st0" d="M82.4,321.3c-0.1,0-0.2-0.1-0.4-0.1c-9.2-2.2-17.9,5.4-16.7,14.9l5,41c1.2,9.9-4.2,19.3-13,23.3
		c4.2,2,9.1,2.6,14,1.6c0.2,0,0.4-0.1,0.6-0.1c11.2-2.6,18.6-13.3,17.2-24.7L82.4,321.3z"/>
	<path class="st0" d="M245.7,100.4c-9.2-3.2-18-3.5-26.4-2c2.5,0.5,5,1.1,7.5,2c47.2,16.3,61.7,68.5,51.1,131.9
		c-6.6,39.1-36,73.4-69.5,78.9c40.6,6.9,80.6-32.5,88.4-78.9C307.5,168.9,292.9,116.7,245.7,100.4z"/>
	<path class="st1" d="M296.8,232.3c-9.2,54.9-63.4,100.1-110.6,70.2c-1.4,0.9-2.7,1.9-4.1,2.8c-18.5,12-35.9,17-50.8,18.3
		c1.6,5.4,3.6,11.9,5.9,19.1c14.7-0.8,32.6-6.1,52.7-20.2c47.2,29.9,110.1-18.3,119.3-73.2c6.4-37.8,3.7-71.6-9.4-96.2
		c-1.8-0.1-3.6-0.2-5.5-0.2C301.2,175,301.8,202.4,296.8,232.3z"/>
	<path class="st3" d="M128.8,239.6c-5.8,0-10.3,5.6-10.3,12.8c0,7.2,4.5,12.8,10.3,12.8c5.8,0,10.3-5.6,10.3-12.8
		C139.1,245.2,134.6,239.6,128.8,239.6z"/>
</g>
<g id="Livello_2">
	<path class="st2" d="M381.4,186.2h-58c-1.9,0-3.4-1.5-3.4-3.4V177c0-1.9,1.5-3.4,3.4-3.4h58c1.9,0,3.4,1.5,3.4,3.4v5.9
		C384.7,184.7,383.2,186.2,381.4,186.2z"/>
	<path class="st1" d="M323.3,175.3h58c1.9,0,3.4,1.5,3.4,3.4V177c0-1.9-1.5-3.4-3.4-3.4h-58c-1.9,0-3.4,1.5-3.4,3.4v1.7
		C320,176.8,321.5,175.3,323.3,175.3z"/>
	<path class="st4" d="M353,67.8c-15.2,0-27.7,12.3-27.7,27.5S337.9,123,353,123s27.5-12.5,27.5-27.7S368.2,67.8,353,67.8z"/>
	<path class="st5" d="M380.5,95.3c0,15.2-12.3,27.7-27.5,27.7V67.8C368.2,67.8,380.5,80.1,380.5,95.3z"/>
	<path class="st6" d="M353,74.3c-11.6,0-21.2,9.4-21.2,21s9.7,21.2,21.2,21.2s21-9.7,21-21.2S364.6,74.3,353,74.3z"/>
	<path class="st7" d="M374.1,95.3c0,11.6-9.4,21.2-21,21.2V74.3C364.6,74.3,374.1,83.7,374.1,95.3z"/>
	<path class="st4" d="M356.3,93.7h-1.6v-6.5h1.6c0.9,0,1.6,0.7,1.6,1.6c0,2.1,3.2,2.1,3.2,0c0-2.7-2.2-4.9-4.9-4.9h-1.6v-1.6
		c0-1.1-0.8-1.6-1.6-1.6s-1.6,0.5-1.6,1.6V84h-1.8c-2.7,0-4.9,2.2-4.9,4.9V92c0,2.7,2.2,4.9,4.9,4.9h1.8v6.7h-1.8
		c-0.9,0-1.6-0.7-1.6-1.6c0-2.1-3.2-2.1-3.2,0c0,2.7,2.2,4.9,4.9,4.9h1.8v1.6c0,1.1,0.8,1.6,1.6,1.6s1.6-0.5,1.6-1.6v-1.6h1.6
		c2.7,0,4.9-2.2,4.9-4.9v-3.5C361.1,95.8,359,93.7,356.3,93.7z M351.4,93.7h-1.8c-0.9,0-1.6-0.7-1.6-1.6v-3.2c0-0.9,0.7-1.6,1.6-1.6
		h1.8V93.7z M357.9,102c0,0.9-0.7,1.6-1.6,1.6h-1.6v-6.7h1.6c0.9,0,1.6,0.7,1.6,1.6V102z"/>
	<path class="st5" d="M356.3,93.7h-1.6v-6.5h1.6c0.9,0,1.6,0.7,1.6,1.6c0,2.1,3.2,2.1,3.2,0c0-2.7-2.2-4.9-4.9-4.9h-1.6v-1.6
		c0-1.1-0.8-1.6-1.6-1.6v29.3c0.8,0,1.6-0.5,1.6-1.6v-1.6h1.6c2.7,0,4.9-2.2,4.9-4.9v-3.5C361.1,95.8,359,93.7,356.3,93.7z
		 M357.9,102c0,0.9-0.7,1.6-1.6,1.6h-1.6v-6.7h1.6c0.9,0,1.6,0.7,1.6,1.6V102z"/>
</g>
</svg>
